<svg width="59" height="34" viewBox="0 0 59 34" fill="none" xmlns="http://www.w3.org/2000/svg">
<path d="M7.12725 3.81948C6.00531 2.69754 4.18629 2.69754 3.06435 3.81948M7.12725 3.81948L3.06435 3.81948M7.12725 3.81948L28.5292 25.2214M7.12725 3.81948L28.5292 25.2214M3.06435 3.81948C1.94241 4.94142 1.94241 6.76044 3.06435 7.88238M3.06435 3.81948L3.06435 7.88238M3.06435 7.88238L25.7008 30.5188M3.06435 7.88238L25.7008 30.5188M25.7008 30.5188C27.6534 32.4714 30.8192 32.4714 32.7719 30.5188L55.4083 7.88238L54.1738 6.64791M25.7008 30.5188L54.1738 6.64791M54.1738 6.64791L55.4083 7.88238C56.5302 6.76045 56.5303 4.94143 55.4083 3.81948M54.1738 6.64791L55.4083 3.81948M55.4083 3.81948C54.2864 2.69754 52.4673 2.69754 51.3454 3.81948M55.4083 3.81948L51.3454 3.81948M51.3454 3.81948L29.9434 25.2214M51.3454 3.81948L29.9434 25.2214M29.9434 25.2214C29.5529 25.612 28.9197 25.612 28.5292 25.2214M29.9434 25.2214L28.5292 25.2214" fill="#F8A094" stroke="#F8A094" stroke-width="4"/>
</svg>
