<svg width="34" height="59" viewBox="0 0 34 59" fill="none" xmlns="http://www.w3.org/2000/svg">
<path d="M30.338 7.81219C31.4599 6.69025 31.4599 4.87122 30.338 3.74929M30.338 7.81219L30.338 3.74929M30.338 7.81219L8.93602 29.2142M30.338 7.81219L8.93602 29.2142M30.338 3.74929C29.2161 2.62735 27.397 2.62735 26.2751 3.74929M30.338 3.74929L26.2751 3.74929M26.2751 3.74929L3.63865 26.3857M26.2751 3.74929L3.63865 26.3857M3.63865 26.3857C1.68603 28.3383 1.68602 31.5042 3.63865 33.4568L26.2751 56.0932L27.5096 54.8588M3.63865 26.3857L27.5096 54.8588M27.5096 54.8588L26.2751 56.0932C27.397 57.2152 29.216 57.2152 30.338 56.0932M27.5096 54.8588L30.338 56.0932M30.338 56.0932C31.4599 54.9713 31.4599 53.1523 30.338 52.0303M30.338 56.0932L30.338 52.0303M30.338 52.0303L8.93602 30.6284M30.338 52.0303L8.93602 30.6284M8.93602 30.6284C8.5455 30.2378 8.5455 29.6047 8.93602 29.2142M8.93602 30.6284L8.93602 29.2142" fill="#F8A094" stroke="#F8A094" stroke-width="4"/>
</svg>
