<svg width="34" height="59" viewBox="0 0 34 59" fill="none" xmlns="http://www.w3.org/2000/svg">
<path d="M3.13466 52.0302C2.01272 53.1522 2.01273 54.9712 3.13466 56.0931M3.13466 52.0302L3.13466 56.0931M3.13466 52.0302L24.5366 30.6282M3.13466 52.0302L24.5366 30.6282M3.13466 56.0931C4.2566 57.2151 6.07563 57.2151 7.19757 56.0931M3.13466 56.0931L7.19757 56.0931M7.19757 56.0931L29.834 33.4567M7.19757 56.0931L29.834 33.4567M29.834 33.4567C31.7866 31.5041 31.7866 28.3382 29.834 26.3856L7.19757 3.74916L5.96309 4.98364M29.834 33.4567L5.96309 4.98364M5.96309 4.98364L7.19756 3.74916C6.07563 2.62724 4.25661 2.62721 3.13466 3.74917M5.96309 4.98364L3.13466 3.74917M3.13466 3.74917C2.01272 4.8711 2.01272 6.69013 3.13467 7.81207M3.13466 3.74917L3.13467 7.81207M3.13467 7.81207L24.5366 29.214M3.13467 7.81207L24.5366 29.214M24.5366 29.214C24.9272 29.6046 24.9272 30.2377 24.5366 30.6282M24.5366 29.214L24.5366 30.6282" fill="#F8A094" stroke="#F8A094" stroke-width="4"/>
</svg>
