<svg width="59" height="34" viewBox="0 0 59 34" fill="none" xmlns="http://www.w3.org/2000/svg">
<path d="M51.3454 31.0229C52.4673 32.1449 54.2864 32.1449 55.4083 31.0229M51.3454 31.0229L55.4083 31.0229M51.3454 31.0229L29.9434 9.62096M51.3454 31.0229L29.9434 9.62096M55.4083 31.0229C56.5302 29.901 56.5302 28.082 55.4083 26.96M55.4083 31.0229L55.4083 26.96M55.4083 26.96L32.7719 4.32359M55.4083 26.96L32.7719 4.32359M32.7719 4.32359C30.8193 2.37097 27.6534 2.37096 25.7008 4.32358L3.06435 26.96L4.29882 28.1945M32.7719 4.32359L4.29882 28.1945M4.29882 28.1945L3.06435 26.96C1.94242 28.082 1.9424 29.901 3.06435 31.0229M4.29882 28.1945L3.06435 31.0229M3.06435 31.0229C4.18629 32.1449 6.00532 32.1449 7.12726 31.0229M3.06435 31.0229L7.12726 31.0229M7.12726 31.0229L28.5292 9.62096M7.12726 31.0229L28.5292 9.62096M28.5292 9.62096C28.9197 9.23043 29.5529 9.23043 29.9434 9.62096M28.5292 9.62096L29.9434 9.62096" fill="#F8A094" stroke="#F8A094" stroke-width="4"/>
</svg>
