<svg width="53" height="93" viewBox="0 0 53 93" fill="none" xmlns="http://www.w3.org/2000/svg">
<path d="M28.0264 48.9061C26.9786 49.3928 26.7391 48.0849 27.1732 54.7073C27.495 59.6046 29.1864 78.4157 20.7557 71.5614C20.3403 71.2237 20.0934 70.7535 20.0746 70.2568C19.2701 47.6809 21.6089 25.456 20.0559 2.92976C20.0035 2.18805 20.4488 1.48276 21.201 1.15826C29.8974 -2.58342 27.6409 28.6017 27.3229 41.3432C27.3116 41.8134 27.2929 45.7074 27.7345 45.6445C28.1049 45.5915 31.4353 43.5551 33.5346 42.128C38.0736 39.0452 44.4275 28.1447 32.73 27.5388C31.7721 27.4891 31.5887 26.2904 32.498 26.0222C46.9384 21.7673 48.5437 35.6976 42.5266 43.4028C42.332 43.6512 40.8988 44.7571 41.2131 44.7141C41.5836 44.6611 42.7511 44.8299 43.0879 44.9823C51.077 48.6279 53.5579 52.8398 52.7235 60.6609C51.0733 76.1309 26.683 85.952 9.87025 90.8162C-13.1692 97.4817 11.2885 86.3162 11.7263 86.0878C52.3156 64.8628 46.1675 42.9624 28.0264 48.9061Z" fill="#F8A094"/>
</svg>
