<svg width="71" height="67" viewBox="0 0 71 67" fill="none" xmlns="http://www.w3.org/2000/svg">
<path d="M70.5672 33.669C70.5672 51.7052 54.8555 66.3692 35.5 66.3692C16.1582 66.3692 0.432739 51.718 0.432739 33.669C0.432739 15.62 16.1445 0.96875 35.5 0.96875C54.8555 0.96875 70.5672 15.62 70.5672 33.669ZM66.1838 33.669C66.1838 17.932 52.4446 5.05628 35.5 5.05628C18.5828 5.05628 4.81615 17.8937 4.81615 33.669C4.81615 49.4443 18.5828 62.2817 35.5 62.2817C52.4172 62.2817 66.1838 49.4443 66.1838 33.669ZM22.4731 16.8846L34.3767 21.6235L29.2947 32.7237L17.391 27.9848L22.4731 16.8846ZM37.541 38.4846L43.9243 50.4917H41.9244L35.0753 37.7182L28.377 50.4917H26.4592L33.459 36.8368L30.4043 35.6361L31.2262 33.8478L40.6231 37.5649L39.8012 39.3915L37.541 38.4846ZM35.9246 23.629L45.3216 27.3844L41.2943 36.1087L31.9385 32.3916L35.9246 23.629ZM46.9242 29.1088L54.4034 32.0595L51.1981 38.9955L43.76 36.0449L46.9242 29.1088Z" fill="#F8A094"/>
</svg>
