<svg width="72" height="73" viewBox="0 0 72 73" fill="none" xmlns="http://www.w3.org/2000/svg">
<path d="M17.5284 42.2885H23.6343C24.7581 42.2885 25.6696 43.1591 25.6696 44.2326V50.065C25.6696 51.1385 24.7581 52.0091 23.6343 52.0091H17.5284C16.4045 52.0091 15.4931 51.1385 15.4931 50.065V44.2326C15.4931 43.1591 16.4045 42.2885 17.5284 42.2885Z" fill="#F8A094"/>
<path d="M34.3195 37.4282H22.1078V40.3444H19.0549V36.8456C19.0549 35.5588 20.1507 34.512 21.4978 34.512H34.3195V30.6238H31.7754C30.6516 30.6238 29.7401 29.7532 29.7401 28.6797V22.8473C29.7401 21.7738 30.6516 20.9032 31.7754 20.9032H39.9166C41.0405 20.9032 41.9519 21.7738 41.9519 22.8473V28.6797C41.9519 29.7532 41.0405 30.6238 39.9166 30.6238H37.3725V34.512H50.1942C51.5413 34.512 52.6372 35.5594 52.6372 36.8456V40.3444H49.5842V37.4282H37.3725V40.3444H34.3195V37.4282Z" fill="#F8A094"/>
<path d="M32.7931 42.2885H38.8989C40.0228 42.2885 40.9342 43.1591 40.9342 44.2326V50.065C40.9342 51.1385 40.0228 52.0091 38.8989 52.0091H32.7931C31.6692 52.0091 30.7578 51.1385 30.7578 50.065V44.2326C30.7578 43.1591 31.6692 42.2885 32.7931 42.2885Z" fill="#F8A094"/>
<path d="M48.0578 42.2885H54.1636C55.2875 42.2885 56.1989 43.1591 56.1989 44.2326V50.065C56.1989 51.1385 55.2875 52.0091 54.1636 52.0091H48.0578C46.9339 52.0091 46.0225 51.1385 46.0225 50.065V44.2326C46.0225 43.1591 46.9339 42.2885 48.0578 42.2885Z" fill="#F8A094"/>
<path fill-rule="evenodd" clip-rule="evenodd" d="M71.9262 36.5108C71.9262 56.5247 55.8416 72.7492 36.0002 72.7492C16.1588 72.7492 0.0742188 56.5247 0.0742188 36.5108C0.0742188 16.4969 16.1588 0.272461 36.0002 0.272461C55.8416 0.272461 71.9262 16.4969 71.9262 36.5108ZM68.6976 36.5108C68.6976 54.7261 54.0585 69.4926 36.0002 69.4926C17.9419 69.4926 3.30275 54.7261 3.30275 36.5108C3.30275 18.2955 17.9419 3.52907 36.0002 3.52907C54.0585 3.52907 68.6976 18.2955 68.6976 36.5108Z" fill="#F8A094"/>
</svg>
