<svg width="72" height="68" viewBox="0 0 72 68" fill="none" xmlns="http://www.w3.org/2000/svg">
<path d="M49.4428 21.7533L52.2735 24.4307C52.682 24.817 52.682 25.4424 52.2735 25.8293L49.4428 28.5061C49.05 28.877 48.5187 29.0852 47.9638 29.0852H22.7763C21.9103 29.0852 21.2076 28.4208 21.2076 27.6019V22.6575C21.2076 21.8386 21.9103 21.1742 22.7763 21.1742H33.7566V20.1853C33.7566 19.639 34.2246 19.1964 34.8024 19.1964H36.8939C37.4716 19.1964 37.9396 19.639 37.9396 20.1853V21.1742H47.9638C48.5187 21.1742 49.0507 21.3825 49.4428 21.7533Z" fill="#F8A094"/>
<path d="M34.8024 50.8406C34.2246 50.8406 33.7566 50.3981 33.7566 49.8517V42.9295H37.9396V49.8517C37.9396 50.3981 37.4716 50.8406 36.8939 50.8406H34.8024Z" fill="#F8A094"/>
<path d="M37.9396 33.0408H48.92C49.786 33.0408 50.4886 33.7052 50.4886 34.5241V39.4685C50.4886 40.2874 49.786 40.9518 48.92 40.9518H23.7325C23.1776 40.9518 22.6455 40.7435 22.2534 40.3727L19.4227 37.6959C19.0142 37.3096 19.0142 36.6835 19.4227 36.2973L22.2534 33.6199C22.6462 33.249 23.1776 33.0408 23.7325 33.0408H33.7566V31.063H37.9396V33.0408Z" fill="#F8A094"/>
<path fill-rule="evenodd" clip-rule="evenodd" d="M71.4409 33.5799C71.4409 52.0889 55.5735 67.0934 36.0001 67.0934C16.4267 67.0934 0.559326 52.0889 0.559326 33.5799C0.559326 15.0709 16.4267 0.0664062 36.0001 0.0664062C55.5735 0.0664062 71.4409 15.0709 71.4409 33.5799ZM68.1572 33.5799C68.1572 50.374 53.76 63.9883 36.0001 63.9883C18.2402 63.9883 3.84302 50.374 3.84302 33.5799C3.84302 16.7858 18.2402 3.17153 36.0001 3.17153C53.76 3.17153 68.1572 16.7858 68.1572 33.5799Z" fill="#F8A094"/>
</svg>
