<svg width="72" height="72" viewBox="0 0 72 72" fill="none" xmlns="http://www.w3.org/2000/svg">
<path fill-rule="evenodd" clip-rule="evenodd" d="M16.8788 32.8854C18.346 25.4694 24.3419 19.4902 31.7825 18.0384C44.0438 15.6512 54.778 24.9306 54.8154 36.7243C54.8079 39.3959 52.6371 41.611 49.9573 41.611H43.9914C40.1737 41.611 37.7035 45.5771 39.4327 48.9746C40.8474 51.7509 39.3354 55.3579 36.2513 55.8368C26.7373 57.311 14.1092 46.8792 16.8788 32.8854ZM21.2803 39.2163C21.2803 40.5408 22.3507 41.611 23.6757 41.611C25.0006 41.611 26.071 40.5408 26.071 39.2163C26.071 37.8917 25.0006 36.8216 23.6757 36.8216C22.3507 36.8216 21.2803 37.8917 21.2803 39.2163ZM23.6757 29.6376C23.6757 30.9621 24.7461 32.0323 26.071 32.0323C27.396 32.0323 28.4664 30.9621 28.4664 29.6376C28.4664 28.313 27.396 27.2429 26.071 27.2429C24.7461 27.2429 23.6757 28.313 23.6757 29.6376ZM33.2571 24.8482C33.2571 26.1728 34.3276 27.2429 35.6525 27.2429C36.9774 27.2429 38.0479 26.1728 38.0479 24.8482C38.0479 23.5237 36.9774 22.4536 35.6525 22.4536C34.3276 22.4536 33.2571 23.5237 33.2571 24.8482ZM42.8386 29.6376C42.8386 30.9621 43.909 32.0323 45.234 32.0323C46.5589 32.0323 47.6293 30.9621 47.6293 29.6376C47.6293 28.313 46.5589 27.2429 45.234 27.2429C43.909 27.2429 42.8386 28.313 42.8386 29.6376Z" fill="#F8A094"/>
<path fill-rule="evenodd" clip-rule="evenodd" d="M71.0739 36.3014C71.0739 55.8582 55.2154 71.7122 35.6529 71.7122C16.0904 71.7122 0.231934 55.8582 0.231934 36.3014C0.231934 16.7446 16.0904 0.890625 35.6529 0.890625C55.2154 0.890625 71.0739 16.7446 71.0739 36.3014ZM67.8538 36.3014C67.8538 54.0804 53.437 68.493 35.6529 68.493C17.8689 68.493 3.45202 54.0804 3.45202 36.3014C3.45202 18.5225 17.8689 4.10979 35.6529 4.10979C53.437 4.10979 67.8538 18.5225 67.8538 36.3014Z" fill="#F8A094"/>
</svg>
